<?xml version="1.0" standalone="no"?>
<svg xmlns:xlink="http://www.w3.org/1999/xlink" id="wave" style="transform:rotate(0deg); transition: 0.3s" viewBox="0 0 1440 210" version="1.1" xmlns="http://www.w3.org/2000/svg"><defs><linearGradient id="sw-gradient-0" x1="0" x2="0" y1="1" y2="0"><stop stop-color="rgba(255, 255, 255, 1)" offset="0%"/><stop stop-color="rgba(255, 255, 255, 1)" offset="100%"/></linearGradient></defs><path style="transform:translate(0, 0px); opacity:1" fill="url(#sw-gradient-0)" d="M0,84L80,73.5C160,63,320,42,480,42C640,42,800,63,960,59.5C1120,56,1280,28,1440,38.5C1600,49,1760,98,1920,129.5C2080,161,2240,175,2400,157.5C2560,140,2720,91,2880,87.5C3040,84,3200,126,3360,140C3520,154,3680,140,3840,112C4000,84,4160,42,4320,28C4480,14,4640,28,4800,35C4960,42,5120,42,5280,38.5C5440,35,5600,28,5760,28C5920,28,6080,35,6240,35C6400,35,6560,28,6720,28C6880,28,7040,35,7200,35C7360,35,7520,28,7680,45.5C7840,63,8000,105,8160,101.5C8320,98,8480,49,8640,52.5C8800,56,8960,112,9120,140C9280,168,9440,168,9600,157.5C9760,147,9920,126,10080,108.5C10240,91,10400,77,10560,84C10720,91,10880,119,11040,136.5C11200,154,11360,161,11440,164.5L11520,168L11520,210L11440,210C11360,210,11200,210,11040,210C10880,210,10720,210,10560,210C10400,210,10240,210,10080,210C9920,210,9760,210,9600,210C9440,210,9280,210,9120,210C8960,210,8800,210,8640,210C8480,210,8320,210,8160,210C8000,210,7840,210,7680,210C7520,210,7360,210,7200,210C7040,210,6880,210,6720,210C6560,210,6400,210,6240,210C6080,210,5920,210,5760,210C5600,210,5440,210,5280,210C5120,210,4960,210,4800,210C4640,210,4480,210,4320,210C4160,210,4000,210,3840,210C3680,210,3520,210,3360,210C3200,210,3040,210,2880,210C2720,210,2560,210,2400,210C2240,210,2080,210,1920,210C1760,210,1600,210,1440,210C1280,210,1120,210,960,210C800,210,640,210,480,210C320,210,160,210,80,210L0,210Z"/></svg>