<svg width="453" height="517" viewBox="0 0 453 517" fill="none" xmlns="http://www.w3.org/2000/svg">
<g clip-path="url(#clip0_13_637)">
<mask id="mask0_13_637" style="mask-type:luminance" maskUnits="userSpaceOnUse" x="22" y="26" width="319" height="491">
<path d="M22.2068 26.5713H340.699V517H22.2068V26.5713Z" fill="white"/>
</mask>
<g mask="url(#mask0_13_637)">
<path fill-rule="evenodd" clip-rule="evenodd" d="M332.393 462.31C332.725 460.839 332.393 460.904 334.196 460.839V462.084C333.609 462.286 333.01 462.416 332.393 462.476V462.31ZM331.611 515.766C331.611 500.013 342.448 481.574 332.725 467.031C324.308 454.35 329.056 452.844 326.762 448.36C325.695 446.865 324.93 445.228 324.474 443.443C324.076 441.118 324.474 439.155 323.851 436.895C322.701 431.326 320.312 425.887 318.741 420.519C318.119 418.586 317.532 416.688 317.141 414.885C315.238 406.006 316.909 409.547 312.291 410.626C310.732 405.781 309.642 400.834 309.019 395.787C306.091 378.1 304.757 360.295 305.024 342.365C305.024 340.402 305.35 340.236 305.415 338.404C305.676 330.082 305.907 322.615 306.921 314.329C307.543 309.513 308.397 304.205 309.28 299.656C309.837 297.064 310.329 295.071 310.851 292.58C311.373 290.089 312.161 288.155 312.653 286.026L304.958 288.517C302.397 289.537 299.748 290.172 297.003 290.415C297.003 292.052 297.364 293.232 297.364 295.463C297.364 300.765 296.446 311.838 298.473 315.996C299.125 317.224 299.682 318.487 300.145 319.798C302.599 328.083 299.783 341.221 300.145 350.289C300.506 356.843 301.49 369.619 300.145 375.514C298.248 383.409 290.091 392.186 285.413 398.444C282.135 402.667 278.863 406.237 275.786 410.626C269.728 419.701 272.935 419.108 271.364 422.518C271.091 423.082 270.7 423.556 270.202 423.936C269.698 424.315 269.135 424.564 268.518 424.677C268.518 408.794 282.135 399.488 289.931 387.798L293.203 382.75C297.098 377.021 297.299 377.673 297.299 370.206L296.938 320.717C296.938 322.716 296.612 322.811 296.546 324.709C296.481 326.613 296.772 327.431 295.954 328.445C293.499 331.357 293.825 325.925 294.086 323.694C294.768 314.774 294.987 305.848 294.744 296.904C294.744 293.464 294.021 290.646 294.021 287.503C300.85 287.082 307.395 285.51 313.667 282.788C320.217 279.508 321.948 276.234 324.734 269.686C326.993 264.378 332.067 259.236 333.212 253.898C333.828 250.173 333.917 246.442 333.478 242.694C333.117 240.007 333.478 236.863 333.277 234.082C333.034 230.749 333.034 227.421 333.277 224.088C333.704 214.527 335.506 214.622 331.083 204.931C328.86 200.014 327.811 192.286 325.096 188.128C324.806 187.44 324.408 186.811 323.916 186.254C323.418 185.696 322.849 185.228 322.203 184.854C321.557 184.48 320.863 184.225 320.134 184.077C319.399 183.929 318.664 183.905 317.923 184C314.443 183.591 310.946 183.478 307.448 183.668C299.427 185.637 297.886 200.767 291.336 201.324C291.217 200.518 291.27 199.729 291.508 198.946C291.739 198.163 292.13 197.475 292.681 196.87C293.695 195.791 294.614 195.038 295.657 194.023C299.949 189.403 298.769 182.559 306.203 181.343C309.956 180.75 313.732 180.435 317.532 180.394C324.438 180.394 327.123 183.276 329.418 189.925C330.2 192.185 332.328 202.404 334.296 203.816C332.654 196.775 333.834 193.988 329.418 185.21C327.615 181.26 325.031 177.92 321.658 175.186C319.364 173.484 320.022 174.599 317.141 174.599C313.21 174.599 309.802 173.846 305.842 173.846C297.264 173.846 293.861 186.354 288.787 192.742C287.832 193.739 286.795 194.628 285.674 195.429C280.535 200.257 275.875 205.506 271.696 211.182L267.143 218.619C266.485 219.948 265.916 221.312 265.442 222.712C263.77 227.789 264.624 226.543 259.122 226.543C254.309 226.543 250.147 225.464 245.239 225.464C245.435 223.02 245.435 220.577 245.239 218.127C244.913 216.063 245.239 213.999 244.913 211.971C243.573 201.526 240.111 191.841 234.533 182.914C230.116 176.402 224.935 170.572 218.977 165.424C216.108 162.814 213.061 160.424 209.848 158.253C209.848 158.253 208.864 157.535 208.829 157.435C208.141 156.681 208.271 157.927 208.271 156.515L208.698 133.853C208.995 131.296 209.913 127.56 207.649 125.727C205.497 124.149 203.084 123.289 200.417 123.141C199.118 122.933 197.844 122.637 196.587 122.257C186.764 119.274 184.239 108.141 171.114 108.141C163.811 108.141 158.44 111.415 151.635 113.052C142.464 115.276 132.611 115.413 125.077 121.012C115.254 128.313 117.157 125.502 110.345 129.203C107.921 130.478 106.255 133.099 103.238 133.36C100.226 133.621 100.653 133.034 98.5249 134.505C97.357 135.341 96.0884 135.988 94.725 136.438C85.987 139.422 73.5143 137.945 66.537 142.5C62.1858 145.732 58.54 149.629 55.5997 154.19C44.2415 172.274 53.7027 180.002 46.6008 180.589C46.6008 182.428 46.9921 182.588 46.9921 184.587C46.9921 191.301 45.516 197.102 45.516 204.076C45.7057 206.989 46.423 209.764 47.6798 212.398C53.3114 209.414 62.3814 195.726 72.5303 191.467C74.4924 190.649 75.8026 189.99 77.9959 189.302C79.9522 188.911 81.8848 188.424 83.7936 187.831C83.5624 190.156 81.2386 189.83 81.2386 201.52H84.1196C84.4753 204.207 85.4298 206.662 86.9711 208.893C90.5042 215.44 89.3245 215.44 89.2593 218.88C88.459 218.596 87.801 218.109 87.2852 217.433C86.7695 216.757 86.479 215.998 86.4138 215.15C85.7558 212.042 84.4753 209.213 82.5783 206.662L81.4046 203.193C81.4046 203.193 81.1734 202.766 81.1082 202.7L80.8473 202.273C80.2901 208.827 72.5303 214.361 68.1731 218.655C66.5251 220.132 65.0549 221.769 63.7567 223.566C65.0668 229.295 76.0337 229.295 81.9263 232.279C86.3723 234.426 90.4212 237.166 94.0729 240.499C95.8098 242.729 95.0866 256.584 95.0866 259.728C95.0866 260.742 94.4345 260.807 93.7765 261.329C85.4298 267.883 77.8003 273.055 65.9501 273.055C62.6481 271.341 59.4707 269.419 56.4237 267.29C56.6015 265.41 56.5482 263.53 56.2577 261.661C55.5997 260.511 54.0939 262.415 53.7679 263.559C52.4281 267.782 54.1947 269.028 54.9476 272.302C57.5322 271.78 56.4237 270.896 59.696 270.896C60.7452 275.35 55.3388 273.844 55.3388 276.335C55.3388 277.248 55.6649 278.102 56.8149 278.102C58.8423 278.102 60.8104 274.828 64.4444 276.691C63.9523 278.855 62.7726 279.087 60.5792 279.674C58.3859 280.261 57.3069 280.101 56.4237 282.064C55.5345 284.027 55.244 285.338 54.586 287.076C53.9339 288.814 53.3114 290.35 52.7542 291.791C43.5834 316.85 49.4819 321.992 59.8264 342.626L75.0497 368.338C75.933 369.488 76.6206 370.242 77.5039 371.321L93.6816 390.68C95.0866 392.839 96.3018 394.642 97.772 396.736C105.467 408.2 110.179 409.837 108.905 425.792C108.715 428.716 108.976 431.599 109.693 434.44C110.191 436.936 111.009 439.327 112.136 441.61C113.268 443.894 114.673 445.993 116.351 447.909C118.034 449.819 119.931 451.485 122.047 452.903C124.17 454.315 126.434 455.436 128.847 456.254C134.74 458.282 137.816 461.165 144.266 460.412C149.595 459.255 154.699 457.464 159.59 455.038C166.662 452.227 174.748 450.519 180.475 445.376C184.132 442.221 187.333 438.651 190.072 434.665C191.578 432.702 192.835 430.578 193.837 428.313C194.981 428.935 195.704 429.102 195.704 430.869C195.704 435.193 191.999 437.945 189.153 440.139C183.522 444.232 183.03 447.903 175.11 452.221C172.685 453.597 170.557 454.451 167.937 455.661C165.317 456.877 162.928 457.76 160.408 458.609C157.883 459.463 155.233 460.317 152.287 461.005C150.194 461.491 144.888 462.019 143.643 462.642C144.07 464.148 146.525 465.916 147.9 466.734C149.275 467.553 150.846 468.863 152.482 470.008C154.124 471.082 155.535 472.404 156.709 473.976C157.883 475.548 158.76 477.268 159.323 479.148C156.051 478.851 145.511 467.227 142.233 464.706C141.035 463.466 139.571 462.843 137.846 462.837C134.081 462.837 135.492 462.476 134.016 460.513C132.546 458.543 126.553 457.233 126.553 460.673C126.553 462.476 129.991 462.244 131.04 464.214C132.084 466.177 135.818 478.359 136.963 481.799C140.928 493.365 144.693 492.807 149.109 501.158C142.565 500.992 137.158 489.533 135.066 484.391C133.536 480.708 132.226 476.953 131.135 473.122C130.151 469.848 127.863 465.062 124.591 464.308C124.241 465.24 123.725 466.07 123.049 466.799C119.415 471.841 116.143 477.102 113.227 482.588L108.117 492.416C107.269 494.082 106.48 495.69 105.662 497.196C104.844 498.703 104.678 501.028 102.781 501.55C101.044 498.964 103.042 496.473 104.352 493.721C107.553 486.657 111.276 479.877 115.521 473.383C116.534 471.876 117.418 470.334 118.497 468.798C125.569 458.282 122.101 463.49 122.101 458.97C122.101 457.073 123.903 458.217 124.62 458.579C123.737 455.305 119.546 453.828 116.926 452.191C115.408 451.331 114.08 450.234 112.954 448.899C111.827 447.565 110.968 446.07 110.381 444.427C109.593 442.856 108.739 440.893 108.117 439.451C103.107 427.364 109.593 420.027 103.439 409.054C98.0447 400.472 91.9447 392.424 85.1333 384.915C84.5465 384.162 84.09 383.901 83.432 383.011C79.8336 378.426 75.6721 374.298 72.0382 369.749C69.8389 367.14 67.9064 364.34 66.2406 361.363C64.64 358.089 63.3299 354.815 61.7589 351.766C60.188 348.718 58.4807 345.9 56.7794 342.597C51.5449 332.211 45.7472 324.643 45.7472 311.281C45.7294 305.462 46.5119 299.751 48.1066 294.152C50.134 287.93 52.6238 291.038 52.6238 279.905C52.6238 270.338 47.2233 265.522 42.5401 260.25C41.4908 259.135 41.722 259.562 41.722 257.432C41.722 248.915 34.7803 246.033 34.7803 238.993C34.7803 230.577 36.9736 227.101 41.7872 220.648C49.6775 210.102 42.4749 214.723 42.4749 206.17C42.4215 206.265 42.3682 206.348 42.3089 206.437C41.9473 207.089 42.1429 207.611 40.9988 207.611C37.7265 207.611 38.2837 200.868 37.9873 198.638C37.8214 197.457 37.9873 196.704 36.9736 196.052C36.7424 196.971 36.3156 197.884 35.1715 197.884C31.668 197.884 37.3353 191.337 37.3353 187.404C37.3353 185.079 35.8592 185.601 33.7013 184.13C34.1222 179.249 39.0366 176.989 40.2459 171.847C38.7936 172.725 37.2226 173.087 35.5331 172.926C35.8592 168.965 39.5939 169.653 39.9199 166.046C36.6476 166.046 37.7917 167.885 33.7013 167.885C33.4583 167.274 33.4109 166.651 33.5709 166.011C33.7251 165.37 34.0511 164.842 34.5491 164.409C35.0411 163.822 37.0685 162.15 35.7584 161.563C34.4542 160.969 33.731 163.004 33.0789 163.656C31.7332 164.872 31.176 164.706 29.8007 163.888C30.1208 162.239 30.5357 160.608 31.0456 159.006C31.4783 157.274 31.5554 155.531 31.2768 153.763C29.5754 154.914 29.9014 156.319 27.6073 156.319C25.9059 156.319 27.216 153.046 27.216 151.996C24.2698 151.996 26.4632 152.749 24.4002 153.603C22.3372 154.451 23.0249 152.618 23.1257 151.604C23.3628 146.142 23.2739 140.679 22.8589 135.229V121.931C23.0901 118.651 23.6118 115.964 24.661 115.964C25.7103 115.964 26.3624 117.05 26.724 117.868C27.5421 119.535 26.724 119.31 28.3305 120.288C29.8007 117.542 28.0341 114.79 28.0045 111.973C31.508 110.3 34.1578 110.466 34.1578 105.093C38.1533 105.419 38.5446 106.237 40.0147 100.051C42.0481 100.051 41.4908 100.277 43.0618 100.603C44.2296 100.739 45.3974 100.739 46.5653 100.603C46.1385 99.4286 44.0103 99.2981 44.0103 97.7204C44.0103 95.3955 48.0414 96.2792 52.031 96.2792C51.8057 93.628 49.8376 92.0563 49.8376 90.1583C49.8376 86.487 57.8642 91.2022 57.8642 86.5226C57.8642 83.2427 53.9339 84.1976 53.8331 79.9687C55.736 79.4112 57.6804 79.1621 59.6604 79.2155C59.5003 76.8253 57.8642 77.8751 57.8642 75.2891C57.8642 72.6972 64.1479 75.6153 65.9145 75.645C65.9145 72.371 63.6559 72.371 62.9386 69.4885C63.6737 69.2276 64.4266 69.0081 65.1972 68.8361C66.1101 68.504 66.2761 68.3438 66.9934 68.0829C68.3925 67.5135 69.8448 67.2644 71.3506 67.3296L71.6766 61.529H77.9307C80.2249 61.529 82.5487 58.6821 83.8232 57.3061C87.1015 53.6347 86.6094 55.5327 90.0477 53.7356C91.7787 52.8815 93.0888 49.2458 94.3041 47.8045C96.8235 44.6966 112.213 41.6777 116.368 40.0407C125.047 36.7668 125.278 32.3778 127.798 31.494C138.533 27.7931 152.322 30.1536 164.664 28.2201C169.413 27.5321 168.921 28.7776 172.78 29.6258C178.797 30.5273 184.79 30.3849 190.76 29.1987C212.889 26.1205 208.011 31.3636 218.296 33.6233C224.087 34.9341 232.274 32.704 236.957 35.2959C239.708 36.832 240.23 38.5698 242.322 40.1712C244.557 41.7014 247.011 42.6385 249.691 42.9885C252.222 43.5934 254.57 44.6195 256.733 46.0667C260.332 48.1307 260.628 46.986 264.914 46.986C269.793 46.986 280.339 53.5399 283.677 58.4152L290.227 67.1635C300.246 79.4468 297.234 79.9391 301.324 86.1608C304.371 90.7158 309.511 93.5628 311.147 98.9363C311.734 100.965 311.539 103.029 312.031 105.324C313.341 111.872 319.559 113.479 319.826 119.897C320.312 131 322.245 125.336 323.098 131.854C323.501 138.538 324.367 145.169 325.683 151.735C326.946 155.732 327.799 159.819 328.238 163.982C328.386 166.266 328.386 168.549 328.238 170.833C327.716 178.727 325.292 173.354 331.083 181.052C332.441 182.505 333.478 184.16 334.184 186.022C334.895 187.879 335.227 189.806 335.18 191.793C335.358 193.857 335.761 195.88 336.389 197.855C337.557 204.575 338.013 211.342 337.764 218.163C337.764 224.972 335.18 225.333 335.18 231.526C335.18 248.625 339.335 252.978 328.86 268.571C320.774 280.593 322.476 276.299 322.476 284.947C322.476 296.868 319.364 306.993 317.727 318.552L316.779 327.004C316.026 332.146 316.222 338.077 313.833 342.858C313.24 344.038 312.949 343.807 312.096 344.726C311.242 345.639 310.786 347.015 308.592 347.051C308.592 354.844 309.179 362.478 309.315 370.176C309.315 372.039 309.642 372.169 309.671 373.776C309.707 375.384 309.671 376.167 309.671 377.317C310.489 384.387 310.981 391.759 312.131 398.734C312.623 400.899 313.009 403.082 313.275 405.288H314.746C314.746 404.007 312.884 400.045 315.469 401.225C318.053 402.406 318.089 408.598 319.66 413.408C324.966 429.457 329.056 446.361 336.715 461.491C341.173 470.37 339.762 467.879 339.531 476.823C339.531 479.314 338.879 482.588 338.778 485.079C338.387 493.952 336.259 501.194 335.114 509.64C334.788 512.196 334.196 514.853 331.836 515.44L331.611 515.766ZM72.465 270.107C67.8174 270.107 64.474 270.107 60.6445 266.833C59.6604 265.92 59.3344 265.92 59.3344 264.182C61.4625 264.342 61.0357 265.92 64.3139 262.64C68.4043 258.613 69.6788 252.818 78.6184 252.818H91.423C92.8932 252.818 92.502 253.927 92.502 256.81C92.502 261.727 85.2993 263.364 78.3576 267.687C76.6266 269.057 74.6584 269.864 72.465 270.107ZM64.0472 258.975C62.9386 258.381 61.919 257.729 64.0472 257.136C64.2428 257.415 64.3377 257.717 64.3377 258.055C64.3377 258.393 64.2428 258.696 64.0472 258.975ZM50.952 264.704C48.4978 263.429 44.2059 259.366 45.1247 255.73C47.0869 248.002 49.3159 245.902 53.4715 240.861C54.8468 239.188 56.1569 238.536 57.633 237.03L63.8515 231.591C64.966 230.671 65.0668 230.968 65.9501 229.722L73.3483 232.083C75.8915 232.836 78.3931 233.72 80.8473 234.734C84.3805 236.306 90.6702 240.108 91.8143 243.773C89.3601 243.287 86.8821 243.044 84.3805 243.038C81.8788 243.038 79.4009 243.275 76.9467 243.761C74.4924 244.242 72.1094 244.959 69.7974 245.908C67.4855 246.863 65.2861 248.026 63.1995 249.408L55.7656 255.962C54.3903 257.053 53.2818 258.375 52.4459 259.924C51.6101 261.466 51.1121 263.114 50.952 264.87V264.704Z" fill="black"/>
</g>
<path fill-rule="evenodd" clip-rule="evenodd" d="M133.69 376.724C133.69 374.298 134.935 374.565 137.354 374.565C137.567 375.158 137.686 375.769 137.715 376.398V379.968H133.69V376.724ZM126.748 378.889H128.942V379.968H126.748V378.889ZM132.214 379.968C130.448 379.968 128.942 380.2 130.744 377.05C131.236 376.072 131.07 375.971 132.214 375.645C132.742 377.086 132.742 378.527 132.214 379.968ZM145.706 377.477V371.321C147.995 371.321 148.161 370.241 149.37 370.241C150.585 370.241 150.289 371.416 150.615 372.632C150.947 373.842 151.433 373.284 151.925 374.957C150.004 376.167 147.929 377.009 145.706 377.477ZM138.83 372.792C143.673 372.792 143.513 372.139 143.513 378.201C141.154 378.397 141.646 379.215 139.518 379.28C139.518 376.398 138.865 375.052 138.83 372.727V372.792ZM151.534 370.241C158.375 365.686 157.883 368.895 158.41 371.973C158.636 373.219 157.592 373.385 156.247 373.812C155.375 374.126 154.539 374.506 153.727 374.957C151.208 371.22 152.518 372.4 151.534 370.241ZM160.278 371.712C159.88 369.975 158.244 369.553 160.93 367.258C162.37 366.013 164.498 365.752 165.02 363.753C166.727 364.18 168.589 367.685 168.69 368.077C166.117 369.832 163.313 371.048 160.278 371.712ZM171.245 367.389C171.245 365.752 170.717 363.326 172.229 363.492L175.24 365.918L172.229 366.932C171.209 367.389 172.715 366.932 171.245 367.389ZM127.827 393.005C109.201 393.005 113.357 383.604 103.86 373.747C101.394 371.345 99.6571 368.492 98.6553 365.194C105.206 365.686 106.48 371.06 109.759 374.826C111.389 376.665 113.298 378.148 115.485 379.28C124.294 384.452 118.757 383.213 132.576 383.213C141.029 382.697 149.139 380.751 156.905 377.382C164.006 374.648 170.847 371.374 177.433 367.555C181.198 364.571 184.606 361.22 187.648 357.496C188.792 359.494 186.924 360.544 186.237 362.573C185.549 364.607 186.077 366.274 185.519 367.685C184.701 369.945 183.326 369.026 180.315 374.435C179.087 376.938 177.439 379.12 175.371 380.983C172.78 383.242 170.717 381.309 166.793 384.423C162.862 387.536 166.135 386.226 159.128 388.45C148.89 391.303 138.456 392.756 127.827 392.809V393.005ZM118.402 348.919C120.156 348.225 121.964 347.757 123.832 347.508C123.832 350.782 126.814 355.141 127.958 357.857C129.6 361.594 128.877 360.348 126.096 361.131C116.795 364.215 118.402 364.411 118.402 348.783V348.919ZM108.579 354.714C110.375 354.714 110.998 356.22 111.851 358.385C112.521 360.348 112.776 362.371 112.604 364.441C109.759 363.688 108.609 357.893 108.609 354.613L108.579 354.714ZM112.177 354.026V351.867C112.841 351.849 113.464 352.003 114.05 352.318C114.631 352.632 115.1 353.071 115.455 353.634C117.874 356.908 118.728 364.506 114.703 364.832C114.436 361.754 112.112 358.284 112.112 354.026H112.177ZM138.373 349.999C138.373 345.147 139.583 341.155 145.315 340.663C145.315 346.167 151.208 356.286 139.452 356.547C138.777 354.417 138.415 352.235 138.373 349.999ZM126.683 350.752V347.478C132.149 347.478 129.238 344.198 133.234 344.198C134.935 344.198 136.245 347.247 136.506 348.818C137.111 352.175 137.354 355.562 137.223 358.972C136.121 359.061 135.03 359.227 133.951 359.465C133.056 359.726 132.179 360.052 131.331 360.443C130.021 357.958 126.582 355.568 126.582 350.621L126.683 350.752ZM155.855 352.946C150.976 352.946 148.587 351.867 148.587 346.754C148.587 342.757 153.893 334.602 157.035 340.533C159.62 345.479 156.347 350.817 155.855 352.946ZM192.331 350.752C189.971 349.079 190.855 342.692 190.855 338.86C193.576 340.823 192.331 346.393 192.331 350.752ZM169.413 345.675C169.413 342.757 169.413 339.121 171.962 337.419C177.036 338.534 176.876 346.232 173.669 348.13C171.897 349.145 169.413 346.885 169.413 345.675ZM167.219 339.94H168.298C168.298 342.692 168.69 348.326 165.512 349.471C163.384 350.159 160.995 347.478 160.343 346.001C160.082 345.473 159.904 344.922 159.809 344.346C159.714 343.765 159.703 343.184 159.774 342.603C159.845 342.021 159.999 341.464 160.236 340.924C160.473 340.39 160.782 339.898 161.161 339.453C163.68 336.636 164.664 340.04 167.219 340.04V339.94ZM180.706 346.493C179.301 346.493 179.627 345.574 179.627 343.219C179.674 341.126 180.273 339.204 181.429 337.454C186.011 339.809 184.701 346.458 180.706 346.458V346.493ZM95.7742 359.856C91.091 359.429 88.7672 349.738 95.4482 345.479C105.769 339.708 116.683 335.473 128.189 332.769C140.632 329.691 155.002 326.612 168.263 328.771L170.853 329.525C152.974 329.525 142.399 334.21 127.436 339.584C124.229 340.871 120.951 341.962 117.613 342.858C109.788 344.756 113.719 346.493 107.79 346.428C104.518 346.428 96.8235 345.74 95.6142 347.674C94.3989 349.601 95.7742 356.974 95.7742 359.791V359.856ZM96.1655 363.13C95.7327 364.168 95.5549 365.253 95.632 366.374C95.7031 367.501 96.0232 368.545 96.5923 369.518C97.7898 371.107 99.094 372.59 100.523 373.972C103.38 376.908 105.769 380.182 107.696 383.8C113.031 394.476 112.64 392.744 121.84 394.743C131.657 396.967 147.343 394.411 156.181 391.925C163.384 389.939 170.195 387.032 176.615 383.213C183.978 378.788 185.353 372.501 188.365 366.013C190.203 362.051 191.477 362.377 193.048 356.191C196.587 341.909 197.796 335.456 184.47 329.786C165.975 321.891 154.545 324.744 135.362 328.611C127.235 329.88 119.285 331.879 111.525 334.602C104.737 337.407 98.1929 340.681 91.8795 344.429C86.5739 348 89.0992 350.977 89.4905 358.284C89.443 358.783 89.526 359.251 89.7454 359.702C89.9647 360.147 90.2789 360.503 90.6998 360.775C92.3537 361.873 94.1559 362.602 96.1003 362.97L96.1655 363.13Z" fill="black"/>
<path fill-rule="evenodd" clip-rule="evenodd" d="M181.423 211.413H183.587V212.493H181.423V211.413ZM185.092 208.501C184.749 206.888 184.867 205.316 185.454 203.78C185.733 203.845 185.993 203.958 186.231 204.112C186.474 204.272 186.675 204.462 186.847 204.693C187.019 204.925 187.143 205.18 187.221 205.452C187.298 205.731 187.327 206.01 187.304 206.295C187.286 206.579 187.215 206.852 187.096 207.113C186.972 207.374 186.812 207.605 186.61 207.807C186.408 208.009 186.171 208.169 185.91 208.287C185.65 208.406 185.377 208.477 185.092 208.501ZM139.517 191.17C139.517 190.091 139.517 190.221 140.169 189.599C140.827 188.976 141.45 189.011 141.811 189.403C143.021 190.583 140.727 191.141 139.517 191.17ZM133.299 184.326C132.576 185.601 130.287 185.998 131.07 184.326C131.591 183.181 134.342 182.624 133.299 184.326ZM128.942 181.77L129.6 182.588C129.368 183.116 128.942 184.688 127.892 183.668C126.849 182.653 128.319 182.197 128.942 181.77ZM99.4731 195.494C99.4731 202.048 113.784 200.541 116.961 200.541C132.771 200.541 135.848 209.58 141.349 209.58C149.897 209.58 165.939 205.583 173.93 210.595C176.088 211.971 179.757 214.984 182.935 214.984C189.218 214.984 189.153 207.255 189.153 202.374C189.153 198.608 181.328 196.313 178.382 194.575C171.274 190.322 170.788 188.65 162.5 188.65C158.244 188.65 155.399 189.338 151.207 189.338C142.072 189.338 139.944 182.197 132.445 179.771C129.635 178.923 126.76 178.525 123.82 178.591C120.885 178.65 118.028 179.166 115.254 180.133C112.841 181.076 110.659 182.392 108.709 184.095C107.796 184.883 106.99 185.773 106.285 186.752C105.466 187.73 104.88 189.077 104.222 189.765C103.569 190.453 99.4731 192.647 99.4731 195.494Z" fill="black"/>
<path fill-rule="evenodd" clip-rule="evenodd" d="M99.0523 254.354V263.393C93.2547 263.393 94.5648 262.314 89.5556 268.796C81.0428 279.905 74.5931 288.452 70.6983 302.473C69.8862 305.332 69.3112 308.232 68.9614 311.186L68.0781 321.174C68.4575 321.18 68.8251 321.126 69.1867 321.002C69.5483 320.883 69.8803 320.705 70.1767 320.468C70.479 320.231 70.728 319.952 70.9295 319.632C71.1311 319.305 71.2734 318.955 71.3504 318.588C72.9214 313.801 66.8629 311.476 81.1732 285.83C84.4455 280.101 90.3381 268.144 97.1198 266.572C96.1298 273.986 94.2506 281.175 91.4881 288.126C90.8953 289.828 90.4033 291.4 89.852 292.971C88.4766 297.034 88.7671 298.837 86.8049 300.077C84.6115 301.625 83.1947 303.701 82.5486 306.304C82.5486 316.126 81.4341 316.393 85.0028 319.009C86.2477 319.928 87.6052 320.616 89.0813 321.073C90.5574 321.53 92.0691 321.725 93.6163 321.666C96.8886 321.275 95.5488 321.043 96.7226 318.552C101.536 321.043 99.6392 314.555 93.0887 314.555C92.65 314.507 92.235 314.578 91.8379 314.774C91.4407 314.97 91.1265 315.26 90.8953 315.64C91.2925 317.111 91.9801 317.111 93.8416 317.111V318.552C92.3062 318.552 92.4366 318.878 91.6482 318.878C84.3803 318.878 82.5486 307.153 87.623 303.748C87.623 307.384 88.4411 311.411 91.6482 311.708C91.6482 307.384 89.8164 305.516 89.8164 301.192C90.4033 297.663 91.6541 294.383 93.5807 291.364C97.8726 280.291 100.38 268.832 101.109 256.976C101.109 246.329 101.109 238.435 94.2387 229.823C93.7348 228.916 92.982 228.335 91.9801 228.085C91.4881 233.916 93.5155 231.656 96.3017 240.042C97.9556 244.692 98.8271 249.485 98.916 254.419L99.0523 254.354Z" fill="black"/>
<path fill-rule="evenodd" clip-rule="evenodd" d="M170.195 226.941C166.004 224.124 163.644 226.543 157.787 224.711C151.925 222.878 144.692 218.619 138.142 222.712C136.316 224.094 134.834 225.772 133.702 227.759C132.564 229.746 131.858 231.875 131.591 234.147C136.897 232.735 136.014 223.631 145.801 223.631C147.147 223.542 148.451 223.714 149.713 224.159C150.982 224.604 152.114 225.28 153.104 226.188L150.946 225.855C140.726 225.855 134.935 230.606 134.146 239.912C137.259 239.746 140.169 238.91 142.89 237.385C146.489 235.535 150.271 234.218 154.237 233.423C158.202 232.635 162.204 232.403 166.235 232.735C172.78 232.735 166.923 230.903 180.806 224.711C184.695 223.115 188.347 221.093 191.773 218.655C192.556 218.062 197.962 212.493 195.045 212.493C188.987 212.493 195.045 214.883 183.13 220.879C179.3 222.842 175.204 224.153 170.296 226.941H170.195Z" fill="black"/>
<path fill-rule="evenodd" clip-rule="evenodd" d="M70.5975 330.147C70.307 336.102 71.1784 341.873 73.2177 347.478C74.2847 351.363 76.1284 354.832 78.7486 357.893C84.1846 363.919 88.3402 368.634 93.3198 375.218L98.1334 382.359C100.795 386.546 103.119 390.911 105.105 395.46L109.592 406.889C110.31 409.054 110.802 410.952 111.329 413.052C111.851 415.146 112.77 417.174 114.602 417.702C114.602 407.874 109.693 397.524 105.366 388.942L100.131 378.918C95.3175 370.111 89.0279 365.817 82.0564 358.581C79.1043 355.289 76.8516 351.576 75.2925 347.436C73.7334 343.302 72.9746 339.026 73.022 334.601C73.022 325.462 81.268 326.446 78.1617 320.551C75.0139 323.374 72.4529 326.648 70.467 330.379L70.5975 330.147Z" fill="black"/>
<path fill-rule="evenodd" clip-rule="evenodd" d="M222.285 337.419C222.285 345.479 218.651 349.738 216.363 356.517C215.936 357.792 215.545 359.465 215.118 361.036C212.237 371.089 209.943 383.438 206.961 394.084C205.817 398.212 200.416 408.692 201.857 411.771C204.833 410.988 205.556 406.86 206.54 404.173C209.996 394.559 212.67 384.737 214.561 374.696C215.924 368.041 217.667 361.487 219.801 355.04C223.02 348.64 224.698 341.861 224.84 334.702C224.401 325.521 223.115 316.458 220.975 307.514C220.685 305.978 220.584 304.632 220.258 303.125C219.932 301.619 218.977 300.966 217.145 300.8C217.145 306.595 222.285 322.419 222.285 337.65V337.419Z" fill="black"/>
<path fill-rule="evenodd" clip-rule="evenodd" d="M205.129 331.624C205.129 350.129 207.097 383.373 196.747 396.641C196.095 397.394 195.342 398.444 194.619 399.227C191.738 402.5 188.074 404.962 188.074 411.017C189.959 409.891 191.435 408.36 192.491 406.433C199.96 395.395 205.195 390.68 207.293 375.971C209.024 363.854 209.421 331.624 205.853 319.768C205.1 317.176 205.165 315.278 201.887 315.017C203.878 320.373 204.969 325.907 205.165 331.624H205.129Z" fill="black"/>
<path fill-rule="evenodd" clip-rule="evenodd" d="M151.534 282.491V283.244C155.34 284.122 158.985 285.445 162.471 287.206C172.104 292.313 180.255 299.181 186.924 307.811C187.974 309.151 188.958 310.367 190.037 311.939C190.529 312.692 190.92 313.38 191.412 314.199C194.174 319.359 196.196 324.792 197.47 330.503C198.751 336.215 199.243 341.992 198.941 347.834C198.941 350.716 198.419 353.041 201.134 353.308L201.466 339.186C201.466 323.564 193.475 311.808 186.403 302.894L183.557 299.62C181.411 297.39 179.153 295.284 176.775 293.298C175.655 292.236 174.481 291.239 173.242 290.32C169.247 287.337 160.698 281.441 155.594 281.441C153.561 281.441 153.14 282.195 151.534 282.521V282.491Z" fill="black"/>
<mask id="mask1_13_637" style="mask-type:luminance" maskUnits="userSpaceOnUse" x="327" y="430" width="57" height="63">
<path d="M327.04 430.454H383.013V492.706H327.04V430.454Z" fill="white"/>
</mask>
<g mask="url(#mask1_13_637)">
<path fill-rule="evenodd" clip-rule="evenodd" d="M383.013 492.285C383.013 485.209 380.001 482.226 377.346 476.265C375.84 472.991 376.498 474.433 373.226 472.991C370.096 471.378 367.238 469.379 364.642 466.995C355.151 459.297 349.911 462.345 341.232 446.557C338.944 442.334 332.559 431.231 327.253 431.13C328.498 433.716 327.253 432.375 329.808 435.845C330.887 437.174 332.079 438.395 333.377 439.516C339.928 446.064 340.414 456.841 353.515 463.264C355.708 464.344 361.174 466.538 362.514 468.733C363.859 470.927 363.729 471.159 366.64 472.007C369.556 472.861 368.703 473.644 370.339 475.577C372.959 478.561 375.354 474.723 377.707 482.718C378.988 487.042 379.675 490.02 383.013 492.25V492.285Z" fill="black"/>
</g>
<path fill-rule="evenodd" clip-rule="evenodd" d="M295.2 245.707C295.2 252.261 294.418 255.926 294.418 262.082C294.489 262.936 294.62 263.773 294.809 264.609C298.247 264.609 302.178 259.858 304.792 258.055C314.289 250.979 308.462 249.9 303.091 255.274C301.401 257.397 299.368 259.123 297.003 260.445L297.921 252.326C299.623 240.76 296.279 240.108 292.877 235.618C291.466 233.785 292.355 233.951 291.537 232.344H288.946C288.751 235.292 288.946 236.175 291.798 238.892C292.841 239.782 293.653 240.855 294.222 242.101C294.797 243.352 295.076 244.663 295.07 246.033L295.2 245.707Z" fill="black"/>
<path fill-rule="evenodd" clip-rule="evenodd" d="M133.299 289.763C135.196 289.27 140.994 283.375 147.111 289.763C150.39 293.333 150.876 299.982 146.625 302.864C144.426 304.306 142.138 305.551 142.102 308.499C144.663 307.781 146.987 306.601 149.08 304.958C149.714 304.519 150.283 303.997 150.775 303.398C151.273 302.799 151.676 302.141 151.99 301.429C152.304 300.723 152.518 299.982 152.63 299.211C152.743 298.446 152.749 297.675 152.648 296.904C152.577 293.612 151.593 290.617 149.702 287.93C149.305 287.432 148.872 286.969 148.398 286.548C147.924 286.127 147.42 285.747 146.88 285.415C146.335 285.083 145.772 284.804 145.179 284.573C144.592 284.336 143.987 284.158 143.365 284.033C142.742 283.909 142.114 283.837 141.48 283.826C140.845 283.814 140.211 283.855 139.589 283.95C138.96 284.051 138.344 284.199 137.745 284.407C137.146 284.614 136.571 284.869 136.014 285.178C135.569 285.35 135.16 285.593 134.793 285.901C134.425 286.216 134.123 286.578 133.874 286.987C133.631 287.402 133.459 287.841 133.358 288.309C133.258 288.778 133.24 289.253 133.299 289.727V289.763Z" fill="black"/>
<path fill-rule="evenodd" clip-rule="evenodd" d="M147.864 248.951C145.801 248.951 140.727 248.951 139.482 247.872C138.243 246.786 139.025 244.592 135.848 244.592C135.676 244.942 135.563 245.309 135.51 245.695C135.457 246.08 135.469 246.466 135.546 246.845C135.617 247.225 135.753 247.587 135.943 247.925C136.138 248.263 136.376 248.56 136.666 248.821C138.699 251.045 138.765 251.798 145.706 251.798C151.308 251.786 156.626 250.541 161.653 248.067C163.716 246.923 165.66 245.606 167.48 244.099C169.081 242.759 171.802 240.535 171.962 238.435C169.016 236.798 168.689 241.086 160.864 245.185C156.821 247.551 152.452 248.797 147.769 248.915L147.864 248.951Z" fill="black"/>
<path fill-rule="evenodd" clip-rule="evenodd" d="M324.343 214.657C324.343 217.374 326.536 217.077 326.536 219.699C326.791 226.715 326.554 233.714 325.813 240.695C325.226 243.482 321.788 243.969 321.788 247.249C321.788 248.72 321.788 247.474 322.114 248.002L322.867 248.72C330.627 246.656 329.417 224.218 329.417 217.67C327.224 217.077 327.876 213.708 325.422 213.708C324.538 213.708 324.307 213.934 324.307 214.788L324.343 214.657Z" fill="black"/>
<path fill-rule="evenodd" clip-rule="evenodd" d="M54.5857 195.132C57.1051 195.66 56.7791 194.646 56.7791 192.25C56.7791 189.86 55.8662 190.417 57.9943 188.745C64.2129 183.668 75.245 175.643 82.2876 174.202C82.2876 172.369 81.9556 172.078 80.8115 171.319C79.3947 171.883 78.0609 172.6 76.816 173.484C75.5059 174.303 74.2669 174.89 72.7908 175.643C70.0106 177.055 66.9932 178.431 64.4085 179.937C57.6624 183.935 54.5857 187.108 54.5857 195.132Z" fill="black"/>
<path fill-rule="evenodd" clip-rule="evenodd" d="M112.93 314.294C112.93 316.951 114.993 318.683 117.287 317.176C116.925 315.539 116.273 315.373 115.455 313.902C119.249 308.268 129.108 305.711 136.666 307.68C138.272 308.102 139.944 309.282 139.944 307.188C139.387 302.372 125.569 303.452 120.103 306.435C118.135 307.514 113.06 311.737 113.06 314.264L112.93 314.294Z" fill="black"/>
<path fill-rule="evenodd" clip-rule="evenodd" d="M322.179 224.384C322.464 229.627 321.77 234.74 320.087 239.71C318.788 242.996 317.289 246.181 315.599 249.277C323.525 248.625 329.874 220.387 320.709 214.296C320.905 215.921 321.213 217.528 321.622 219.112C321.978 220.849 322.162 222.611 322.179 224.384Z" fill="black"/>
<path fill-rule="evenodd" clip-rule="evenodd" d="M89.9468 179.611C86.1173 179.611 82.0565 177.974 81.2029 181.77C83.7164 182.363 86.2595 182.612 88.8323 182.523C97.019 182.523 103.273 174.202 113.653 174.202C113.191 169.125 105.567 173.122 102.485 174.202C101.471 174.563 101.015 174.86 99.9356 175.287C96.7937 176.989 93.5214 178.377 90.1128 179.445L89.9468 179.611Z" fill="black"/>
<path fill-rule="evenodd" clip-rule="evenodd" d="M90.3083 198.768C90 202.985 90.6225 207.06 92.1756 210.986C92.9937 213.05 94.5291 216.555 96.8529 217.143C96.5031 214.64 95.9459 212.184 95.1871 209.776C89.4546 189.895 98.163 189.142 93.5806 187.926C91.6184 189.338 90.3083 195.198 90.3083 198.768Z" fill="black"/>
<path fill-rule="evenodd" clip-rule="evenodd" d="M292.219 229.823C297.494 229.361 296.771 218.489 298.473 214.984C300.085 215.577 301.591 216.377 302.996 217.374C304.75 218.418 306.647 218.952 308.693 218.981C308.361 215.085 300.441 212.593 296.611 211.739C295.07 216.134 294.032 220.642 293.499 225.268C293.149 226.81 292.722 228.323 292.219 229.823Z" fill="black"/>
<path fill-rule="evenodd" clip-rule="evenodd" d="M176.348 230.903C188.4 230.903 190.76 226.448 197.63 224.877C200.648 224.218 203.428 224.877 203.689 221.864C202.047 221.425 200.387 221.354 198.709 221.644C197.037 221.941 195.496 222.57 194.097 223.53C185.845 227.658 177.368 227.036 176.348 230.903Z" fill="black"/>
<path fill-rule="evenodd" clip-rule="evenodd" d="M99.7696 171.651C109.592 171.651 119.415 166.64 124.946 166.64C124.97 165.762 124.839 164.914 124.555 164.083C121.117 163.265 122.984 164.344 117.091 165.691C112.592 166.473 108.152 167.488 103.765 168.733C103.309 168.899 96.9241 171.651 99.7696 171.651Z" fill="black"/>
<path fill-rule="evenodd" clip-rule="evenodd" d="M175.24 234.147C173.438 236.834 173.93 236.668 177.036 236.668C181.535 236.11 185.904 235.019 190.137 233.394C193.409 232.445 197.405 235.126 198.519 230.476C185.418 230.476 186.829 234.111 175.175 234.111L175.24 234.147Z" fill="black"/>
<path fill-rule="evenodd" clip-rule="evenodd" d="M112.539 234.147C112.539 237.421 112.307 243.447 117.287 243.548C117.287 237.385 112.639 236.798 115.55 231.33C116.433 229.657 116.694 229.034 115.123 228.05C113.813 228.382 113.653 229.2 113.191 230.476C112.776 231.674 112.556 232.907 112.539 234.177V234.147Z" fill="black"/>
<path fill-rule="evenodd" clip-rule="evenodd" d="M189.841 204.177C189.841 206.763 193.113 207.451 195.111 207.944C199.758 208.661 198.027 211.645 201.134 209.58C200.221 205.749 195.668 205.126 193.475 204.177C192.295 203.685 191.513 202.801 190.202 202.7C189.936 203.685 189.841 203.424 189.841 204.177Z" fill="black"/>
</g>
<defs>
<clipPath id="clip0_13_637">
<rect width="453" height="517" fill="white"/>
</clipPath>
</defs>
</svg>
