<svg width="502" height="500" viewBox="0 0 502 500" fill="none" xmlns="http://www.w3.org/2000/svg">
<g clip-path="url(#clip0_9_140)">
<path d="M53.1796 164.835C27.7992 129.038 23.0047 71.9487 57.8454 43.5418C97.4438 15.5087 159.673 -3.76211 188.544 77.1631" stroke="black" stroke-width="8.73599" stroke-linecap="round" stroke-linejoin="round"/>
<path fill-rule="evenodd" clip-rule="evenodd" d="M107.069 224.89C104.834 224.038 102.471 222.825 100.034 221.342C107.878 215.729 121.863 207.898 134.679 205.711C146.435 203.713 150.862 204.908 159.673 210.116C154.034 206.783 161.375 187.12 168.099 169.118C173.224 155.392 177.988 142.635 176.353 138.823C192.548 148.756 197.355 159.853 203.944 182.175L170.579 222.96L168.576 248.67C145.357 255.515 134.201 247.788 125.059 239.142C132.15 237.727 151.946 233.474 153.899 228.1C155.957 222.445 155.828 217.825 145.241 214.289C134.654 210.76 112.843 225.852 112.843 225.852L118.979 233.223C115.305 229.718 111.582 226.599 107.069 224.89Z" fill="black"/>
<path d="M79.803 173.505C79.803 175.435 76.3006 207.512 85.8955 211.722C93.8801 215.221 104.89 207.77 109.31 194.056" stroke="black" stroke-width="8.73599" stroke-linecap="round"/>
<path d="M104.822 161.305C113.75 161.017 118.299 158.664 125.678 151.348" stroke="black" stroke-width="8.73599" stroke-linecap="round"/>
<mask id="mask0_9_140" style="mask-type:luminance" maskUnits="userSpaceOnUse" x="-1" y="98" width="129" height="127">
<path d="M-0.104248 98.8235H127.361V224.314H-0.104248V98.8235Z" fill="white"/>
</mask>
<g mask="url(#mask0_9_140)">
<path d="M43.8722 163.64C43.8722 163.64 68.6036 168.682 67.9239 158.045" stroke="black" stroke-width="8.73599" stroke-linecap="round"/>
</g>
<path d="M174.43 246.722C130.803 262.782 125.671 231.955 107.069 224.89C101.803 222.886 93.9596 217.169 88.0079 212.322" stroke="black" stroke-width="8.73599" stroke-linecap="round" stroke-linejoin="round"/>
<path d="M64.0848 181.213C69.216 191.489 73.9002 198.768 80.6296 205.257" stroke="black" stroke-width="8.73599" stroke-linecap="round" stroke-linejoin="round"/>
<path d="M117.099 134.326C103.585 138.499 93.5801 155.521 89.3612 155.521C85.1485 155.521 82.9625 155.521 82.9625 155.521" stroke="black" stroke-width="8.73599" stroke-linecap="round" stroke-linejoin="round"/>
<path d="M164.382 101.82C173.144 93.0391 194.44 85.8516 202.015 111.844C210.997 142.678 200.092 154.877 191.109 152.31" stroke="black" stroke-width="8.73599" stroke-linecap="round" stroke-linejoin="round"/>
<path fill-rule="evenodd" clip-rule="evenodd" d="M97.4681 88.7256C99.9786 75.3126 101.393 57.5859 99.9235 42.5675C99.6479 39.7427 97.1313 37.6778 94.3147 37.9535C91.4919 38.2292 89.4284 40.7476 89.704 43.5724C91.5899 62.8432 88.2956 87.1079 84.5544 98.3395C84.5422 98.3824 84.5238 98.4253 84.5115 98.4682C69.2833 109.148 49.2545 116.011 34.8957 116.342C24.021 85.1594 48.0421 22.2488 125.99 20.3248C169.721 19.2403 195.922 70.4229 198.169 95.7905C182.77 83.5846 170.793 98.6827 165.129 106.391C158.651 110.404 107.388 94.5221 97.4681 88.7256Z" fill="black"/>
<path d="M119.897 233.56C125.567 230.454 138.444 224.118 142.039 223.603" stroke="black" stroke-width="8.73599" stroke-linecap="round" stroke-linejoin="round"/>
<path d="M214.273 242.684C208.077 218.278 200.282 174.405 197.208 165.153C193.357 153.597 198.169 142.034 207.789 152.31C215.492 160.533 223.189 181.213 225.111 187.206" stroke="black" stroke-width="8.73599" stroke-linecap="round" stroke-linejoin="round"/>
<path d="M213.563 160.018C208.86 141.82 201.249 105.552 208.432 106.066C217.415 106.71 226.397 140.11 232.171 160.018" stroke="black" stroke-width="8.73599" stroke-linecap="round" stroke-linejoin="round"/>
<path d="M221.26 124.05C216.557 111.207 216.257 83.8481 224.469 84.8714C234.737 86.1582 245.642 141.391 246.285 155.521" stroke="black" stroke-width="8.73599" stroke-linecap="round" stroke-linejoin="round"/>
<path d="M242.434 130.153C242.434 116.661 236.017 95.1471 246.285 95.7905C256.548 96.4339 267.134 182.175 276.117 195.025" stroke="black" stroke-width="8.73599" stroke-linecap="round" stroke-linejoin="round"/>
<path d="M271.831 185.662C271.935 168.536 280.722 141.072 288.419 142.678C304.29 145.987 298.681 216.219 280.722 241.587C266.351 261.881 252.941 279.038 246.849 286.532" stroke="black" stroke-width="8.73599" stroke-linecap="round" stroke-linejoin="round"/>
<path d="M75.633 223.603C39.0656 235.803 10.8318 345.245 8.26616 361.691C5.06375 382.243 50.6138 458.033 104.504 454.179C158.393 450.325 273.87 296.82 259.756 295.539C248.465 294.51 224.683 260 214.206 242.874L75.633 332.145" stroke="black" stroke-width="8.73599" stroke-linecap="round" stroke-linejoin="round"/>
<path d="M313.646 160.018C344.439 153.597 366.893 135.613 363.69 101.575C356.122 21.2867 239.495 32.6348 191.593 46.3357C255.905 42.4816 350.599 50.1899 270.018 106.71" stroke="black" stroke-width="8.73599" stroke-linecap="round" stroke-linejoin="round"/>
<path d="M231.602 344.516C230.579 352.224 232.171 441.115 231.528 483.719M147.488 486.93V432.696" stroke="black" stroke-width="8.73599" stroke-linecap="round" stroke-linejoin="round"/>
<path d="M239.464 333.756C245.667 379.571 262.579 476.268 273.87 485.006" stroke="black" stroke-width="8.73599" stroke-linecap="round" stroke-linejoin="round"/>
<path d="M345.676 146.311C351.45 147.592 458.636 216.538 480.453 252.506" stroke="black" stroke-width="8.73599" stroke-linecap="round" stroke-linejoin="round"/>
<path d="M364.327 328.291C388.924 371.324 445.422 463.425 474.679 487.574" stroke="black" stroke-width="8.73599" stroke-linecap="round" stroke-linejoin="round"/>
</g>
<defs>
<clipPath id="clip0_9_140">
<rect width="502" height="500" fill="white"/>
</clipPath>
</defs>
</svg>
