<svg width="502" height="473" viewBox="0 0 502 473" fill="none" xmlns="http://www.w3.org/2000/svg">
<g clip-path="url(#clip0_9_474)">
<path d="M261.165 98.2734C270.049 98.2734 278.37 97.0643 282.975 91.499" stroke="black" stroke-width="9.10882" stroke-linecap="round" stroke-linejoin="round"/>
<path d="M318.999 94.8832C324.985 101.195 329.561 103.359 340.081 104.325" stroke="black" stroke-width="9.10882" stroke-linecap="round" stroke-linejoin="round"/>
<path d="M278.589 118.721C289.24 109.333 289.868 119.658 294.562 120.908C299.262 122.165 304.899 111.212 311.792 120.908" stroke="black" stroke-width="9.10882" stroke-linecap="round" stroke-linejoin="round"/>
<path d="M251.024 86.8048C257.703 81.1743 273.451 70.8437 282.976 74.6014" stroke="black" stroke-width="9.10882" stroke-linecap="round" stroke-linejoin="round"/>
<path d="M350.951 91.4989C344.265 85.8625 328.524 75.5378 318.999 79.2955" stroke="black" stroke-width="9.10882" stroke-linecap="round" stroke-linejoin="round"/>
<path d="M287.711 215.027C259.392 216.278 241.037 184.047 236.965 163.084C232.893 142.115 237.463 88.7963 240.723 70.7726C244.794 48.2445 281.174 22.83 311.833 27.5952C342.493 32.3605 368.34 49.4951 372.916 79.2244C376.051 99.5655 361.951 145.872 352.557 166.836C343.157 187.805 323.112 213.463 287.711 215.027Z" stroke="black" stroke-width="9.10882" stroke-linecap="round" stroke-linejoin="round"/>
<path fill-rule="evenodd" clip-rule="evenodd" d="M234.417 150.638C237.238 182.868 259.392 216.278 287.711 215.027C323.112 213.463 350.009 181.926 358.158 155.017L331.529 157.833C329.336 136.715 328.304 129.722 293.94 128.109C260.578 126.545 258.225 130.296 253.839 155.017C253.839 155.017 240.569 151.912 234.417 150.638ZM287.533 135.921C288.488 135.927 289.477 135.933 290.491 135.933C311.17 135.933 321.838 137.634 321.838 153.986C318.276 160.458 274.802 164.666 264.152 153.986C265.325 135.808 272.929 135.85 287.533 135.921Z" fill="black"/>
<path d="M275.039 145.161C282.098 147.876 302.771 147.733 309.599 145.564" stroke="black" stroke-width="9.10882" stroke-linecap="round" stroke-linejoin="round"/>
<path d="M371.31 72.4085C323.889 33.5103 296.951 28.1524 247.888 57.3897C251.96 47.0651 281.174 22.83 311.833 27.5952C342.493 32.3605 364.109 50.5086 371.31 72.4085Z" fill="black"/>
<path d="M239.68 174.215C230.487 201.958 209.423 273.105 205.914 318.665C201.528 375.616 216.565 429.432 205.914 460.726" stroke="black" stroke-width="9.10882" stroke-linecap="round" stroke-linejoin="round"/>
<path d="M227.69 153.986C208.267 160.239 174.585 227.924 116.946 249.202C70.8343 266.224 110.681 305.525 136.368 323.051L173.073 301.933" stroke="black" stroke-width="9.10882" stroke-linecap="round" stroke-linejoin="round"/>
<path d="M364.417 134.054C370.687 135.512 379.453 145.943 373.817 156.582C368.18 167.221 362.538 169.722 352.516 167.221" stroke="black" stroke-width="9.10882" stroke-linecap="round" stroke-linejoin="round"/>
<path d="M235.359 125.602C229.159 123.878 218.953 124.992 218.781 137.029C218.609 149.061 225.366 154.283 235.359 156.896" stroke="black" stroke-width="9.10882" stroke-linecap="round" stroke-linejoin="round"/>
<path d="M102.537 323.051C96.0235 348.08 97.3156 424.43 98.7795 459.476" stroke="black" stroke-width="9.10882" stroke-linecap="round" stroke-linejoin="round"/>
<path d="M96.2605 276.519C68.9079 310.106 21.9018 393.474 15.886 455.054" stroke="black" stroke-width="9.10882" stroke-linecap="round" stroke-linejoin="round"/>
<path d="M214.401 266.645C252.233 298.484 277.707 298.081 327.836 277.218" stroke="black" stroke-width="9.10882"/>
<path d="M348.088 176.159C374.99 188.297 356.273 211.655 321.82 291.134C294.248 354.712 292.79 431.104 295.505 461.355" stroke="black" stroke-width="9.10882" stroke-linecap="round" stroke-linejoin="round"/>
<path d="M416.419 343.072L432.084 336.813C462.412 205.355 419.051 179.869 389.825 166.901" stroke="black" stroke-width="9.10882" stroke-linecap="round" stroke-linejoin="round"/>
<path d="M347.484 374.081C348.74 372.831 397.074 320.39 402.402 331.022C407.725 341.667 384.23 364.818 380.159 370.454C376.087 376.085 401.46 395.169 390.809 416.133C380.159 437.102 373.266 436.788 366.059 435.537C358.857 434.287 339.601 431.003 343.116 422.551C346.636 414.106 359.924 416.133 366.888 415.244" stroke="black" stroke-width="9.10882" stroke-linecap="round" stroke-linejoin="round"/>
<path d="M364.417 375.652C361.916 375.338 311.164 370.294 314.927 381.561C317.932 390.576 350.323 396.058 366.616 397.522" stroke="black" stroke-width="9.10882" stroke-linecap="round" stroke-linejoin="round"/>
<path d="M365.045 397.83C349.173 397.641 315.49 394.322 316.492 399.911C317.743 406.892 349.386 418.242 369.117 415.042" stroke="black" stroke-width="9.10882" stroke-linecap="round" stroke-linejoin="round"/>
<path d="M333.994 373.963C332.429 364.681 321.631 347.452 312.106 351.209C302.582 354.967 311.389 371.082 315.36 378.171" stroke="black" stroke-width="9.10882" stroke-linecap="round" stroke-linejoin="round"/>
<path d="M346.251 442.578C357.53 462.605 400.938 476.806 392.167 412.974" stroke="black" stroke-width="9.10882" stroke-linecap="round" stroke-linejoin="round"/>
<mask id="mask0_9_474" style="mask-type:luminance" maskUnits="userSpaceOnUse" x="333" y="346" width="170" height="128">
<path d="M333.881 346.675H502.3V473.108H333.881V346.675Z" fill="white"/>
</mask>
<g mask="url(#mask0_9_474)">
<path d="M393.464 406.341C395.343 406.649 446.492 451.024 449.942 458.225" stroke="black" stroke-width="9.10882" stroke-linecap="round"/>
</g>
<mask id="mask1_9_474" style="mask-type:luminance" maskUnits="userSpaceOnUse" x="382" y="229" width="121" height="245">
<path d="M382.435 229.844H502.3V473.108H382.435V229.844Z" fill="white"/>
</mask>
<g mask="url(#mask1_9_474)">
<path d="M441.17 288.941C469.05 297.387 486.588 316.164 492.23 343.7C496.741 365.73 479.488 427.56 469.05 462.605" stroke="black" stroke-width="9.10882" stroke-linecap="round"/>
</g>
<mask id="mask2_9_474" style="mask-type:luminance" maskUnits="userSpaceOnUse" x="364" y="304" width="139" height="170">
<path d="M364.227 304.191H502.3V473.108H364.227V304.191Z" fill="white"/>
</mask>
<g mask="url(#mask2_9_474)">
<path d="M454.014 363.727C443.932 377.394 423.769 410.241 423.769 432.283" stroke="black" stroke-width="9.10882" stroke-linecap="round"/>
</g>
<path d="M358.786 184.415C370.065 192.552 427.07 211.027 332.465 320.544" stroke="black" stroke-width="9.10882" stroke-linecap="round"/>
<path d="M239.679 174.055C219.006 192.831 177.72 217.914 164.562 249.83C151.404 281.746 173.577 283.115 206.779 380.115" stroke="black" stroke-width="9.10882" stroke-linecap="round"/>
</g>
<defs>
<clipPath id="clip0_9_474">
<rect width="502" height="473" fill="white"/>
</clipPath>
</defs>
</svg>
